<svg class="ldi-d47xk2" width="100%" height="100%" xmlns="http://www.w3.org/2000/svg" xmlns:xlink="http://www.w3.org/1999/xlink" viewBox="0 0 100 100" preserveAspectRatio="xMidYMid"><!--?xml version="1.0" encoding="utf-8"?--><!--Generator: Adobe Illustrator 21.0.0, SVG Export Plug-In . SVG Version: 6.00 Build 0)--><svg version="1.1" id="Layer_1" xmlns="http://www.w3.org/2000/svg" xmlns:xlink="http://www.w3.org/1999/xlink" x="0px" y="0px" viewBox="0 0 100 100" style="transform-origin: 50px 50px 0px;" xml:space="preserve"><g style="transform-origin: 50px 50px 0px;"><g fill="#3f515c" style="fill: rgb(63, 81, 92); transform-origin: 50px 50px 0px; transform: scale(1);"><g class="ld ld-spin" style="transform-origin: 50px 50px 0px; animation-duration: 0.7s; animation-delay: 0.186792s; animation-direction: normal;"><g fill="#3f515c" style="fill: rgb(63, 81, 92);"><style type="text/css" style="transform-origin: 50px 50px 0px;">.st0{fill:#F4E6C8;} .st1{opacity:0.8;fill:#849B87;} .st2{fill:#D65A62;} .st3{fill:#E15C64;} .st4{fill:#F47E5F;} .st5{fill:#F7B26A;} .st6{fill:#FEE8A2;} .st7{fill:#ACBD81;} .st8{fill:#F5E169;} .st9{fill:#F0AF6B;} .st10{fill:#EA7C60;} .st11{fill:#A8B980;} .st12{fill:#829985;} .st13{fill:#798AAE;} .st14{fill:#8672A7;} .st15{fill:#CC5960;} .st16{fill:#E17A5F;} .st17{fill:#849B87;} .st18{opacity:0.8;fill:#E15C64;} .st19{opacity:0.8;fill:#F7B26A;} .st20{fill:#79A5B5;} .st21{opacity:0.8;fill:#79A5B4;} .st22{fill:#666766;}</style><g style="transform-origin: 50px 50px 0px;"><path class="st3" d="M92.5,50c0,7.2-1.9,14.4-5.4,20.7C79.6,84.2,65.4,92.5,50,92.5c-1.6,0-3-1.3-3-3c0-1.6,1.3-3,3-3 c13.2,0,25.5-7.2,31.9-18.7c3-5.4,4.6-11.6,4.6-17.8c0-6.6-1.8-13.1-5.2-18.7c-0.8-1.4-0.4-3.2,1-4.1c1.4-0.8,3.2-0.4,4.1,1 C90.4,34.8,92.5,42.3,92.5,50z" fill="#3f515c" style="fill: rgb(63, 81, 92);"></path></g><g style="transform-origin: 50px 50px 0px;"><path class="st3" d="M18.6,31.3c6.6-11,18.6-17.8,31.4-17.8c1.6,0,3-1.3,3-3s-1.3-3-3-3c-14.9,0-28.9,7.9-36.5,20.7c0,0,0,0,0,0 c-3.9,6.6-6,14.1-6,21.8c0,7.2,1.9,14.4,5.4,20.7c0.5,1,1.6,1.5,2.6,1.5c0.5,0,1-0.1,1.4-0.4c1.4-0.8,1.9-2.6,1.1-4 c-3-5.4-4.6-11.6-4.6-17.8C13.4,43.4,15.2,36.9,18.6,31.3C18.6,31.3,18.6,31.3,18.6,31.3z" fill="#3f515c" style="fill: rgb(63, 81, 92);"></path></g><g style="transform-origin: 50px 50px 0px;"><path class="st4" d="M53,74.7c0-1.6-1.3-3-3-3c-7.9,0-15.3-4.3-19.1-11.3c0,0,0,0,0,0c-1.7-3.2-2.7-6.8-2.7-10.4 c0-4,1.1-7.9,3.2-11.3c0.9-1.4,0.4-3.2-1-4.1c-1.4-0.9-3.2-0.4-4.1,1c-2.6,4.3-4,9.3-4,14.4c0,4.6,1.2,9.2,3.4,13.3c0,0,0,0,0,0 c4.9,8.9,14.2,14.4,24.3,14.4C51.6,77.7,53,76.3,53,74.7z" fill="#9db1be" style="fill: rgb(157, 177, 190);"></path></g><g style="transform-origin: 50px 50px 0px;"><path class="st4" d="M47,25.3c0,1.6,1.3,3,3,3c7.6,0,14.6,3.9,18.6,10.4c0,0,0,0,0,0c2.1,3.4,3.2,7.3,3.2,11.3 c0,3.6-0.9,7.3-2.7,10.4c-0.8,1.4-0.3,3.2,1.2,4c0.5,0.2,0.9,0.4,1.4,0.4c1,0,2.1-0.6,2.6-1.5c2.2-4,3.4-8.6,3.4-13.3 c0-5.1-1.4-10.1-4-14.4c0,0,0,0,0,0C68.6,27.3,59.7,22.3,50,22.3C48.4,22.3,47,23.7,47,25.3z" fill="#9db1be" style="fill: rgb(157, 177, 190);"></path></g><metadata xmlns:d="https://loading.io/stock/" style="transform-origin: 50px 50px 0px;">
<d:name style="transform-origin: 50px 50px 0px;">ring</d:name>
<d:tags style="transform-origin: 50px 50px 0px;">onion,tree ring,curve bar,circle,concentric,c,round,bracket,ring,spinner</d:tags>
<d:license style="transform-origin: 50px 50px 0px;">cc-by</d:license>
<d:slug style="transform-origin: 50px 50px 0px;">d47xk2</d:slug>
</metadata></g></g></g></g><style type="text/css" style="transform-origin: 50px 50px 0px;">path,ellipse,circle,rect,polygon,polyline,line { stroke-width: 0; }@keyframes ld-spin {
  0% {
    -webkit-transform: rotate(0);
    transform: rotate(0);
    animation-timing-function: cubic-bezier(0.55, 0.055, 0.675, 0.19);
  }
  50% {
    -webkit-transform: rotate(180deg);
    transform: rotate(180deg);
    animation-timing-function: cubic-bezier(0.215, 0.61, 0.355, 1);
  }
  100% {
    -webkit-transform: rotate(360deg);
    transform: rotate(360deg);
  }
}
@-webkit-keyframes ld-spin {
  0% {
    -webkit-transform: rotate(0);
    transform: rotate(0);
    animation-timing-function: cubic-bezier(0.55, 0.055, 0.675, 0.19);
  }
  50% {
    -webkit-transform: rotate(180deg);
    transform: rotate(180deg);
    animation-timing-function: cubic-bezier(0.215, 0.61, 0.355, 1);
  }
  100% {
    -webkit-transform: rotate(360deg);
    transform: rotate(360deg);
  }
}
.ld.ld-spin {
  -webkit-animation: ld-spin 1s infinite;
  animation: ld-spin 1s infinite;
}
</style></svg></svg>
